<mxfile host="app.diagrams.net" modified="2023-08-05T15:20:26.561Z" agent="Mozilla/5.0 (Windows NT 10.0; Win64; x64) AppleWebKit/537.36 (KHTML, like Gecko) Chrome/115.0.0.0 Safari/537.36" version="21.6.6" etag="ryLOEHhJKy82lQU_x0r4" type="device">
  <diagram id="0IXqpW_OB9t1L7lWC-M6" name="Page-1">
    <mxGraphModel dx="7546" dy="3000" grid="1" gridSize="10" guides="1" tooltips="1" connect="1" arrows="1" fold="1" page="1" pageScale="1" pageWidth="850" pageHeight="1100" math="0" shadow="0">
      <root>
        <mxCell id="0" />
        <mxCell id="1" parent="0" />
        <mxCell id="fUtYuWxd-VH8Gu3rPX23-1" value="GetDetailsLambda" style="outlineConnect=0;dashed=0;verticalLabelPosition=bottom;verticalAlign=top;align=center;html=1;shape=mxgraph.aws3.lambda;fillColor=#F58534;gradientColor=none;fontSize=19;" parent="1" vertex="1">
          <mxGeometry x="203.5" y="245.5" width="76.5" height="93" as="geometry" />
        </mxCell>
        <mxCell id="fUtYuWxd-VH8Gu3rPX23-21" style="edgeStyle=orthogonalEdgeStyle;rounded=0;orthogonalLoop=1;jettySize=auto;html=1;fontSize=19;" parent="1" source="fUtYuWxd-VH8Gu3rPX23-2" target="fUtYuWxd-VH8Gu3rPX23-9" edge="1">
          <mxGeometry relative="1" as="geometry" />
        </mxCell>
        <mxCell id="fUtYuWxd-VH8Gu3rPX23-24" style="edgeStyle=orthogonalEdgeStyle;rounded=0;orthogonalLoop=1;jettySize=auto;html=1;fontSize=19;" parent="1" source="fUtYuWxd-VH8Gu3rPX23-2" target="fUtYuWxd-VH8Gu3rPX23-7" edge="1">
          <mxGeometry relative="1" as="geometry" />
        </mxCell>
        <mxCell id="fUtYuWxd-VH8Gu3rPX23-2" value="Question Gathering" style="outlineConnect=0;dashed=0;verticalLabelPosition=bottom;verticalAlign=top;align=center;html=1;shape=mxgraph.aws3.lambda;fillColor=#F58534;gradientColor=none;fontSize=19;" parent="1" vertex="1">
          <mxGeometry x="410" y="457" width="76.5" height="93" as="geometry" />
        </mxCell>
        <mxCell id="fUtYuWxd-VH8Gu3rPX23-20" style="edgeStyle=orthogonalEdgeStyle;rounded=0;orthogonalLoop=1;jettySize=auto;html=1;fontSize=19;" parent="1" source="fUtYuWxd-VH8Gu3rPX23-3" target="fUtYuWxd-VH8Gu3rPX23-2" edge="1">
          <mxGeometry relative="1" as="geometry" />
        </mxCell>
        <mxCell id="fUtYuWxd-VH8Gu3rPX23-23" style="edgeStyle=orthogonalEdgeStyle;rounded=0;orthogonalLoop=1;jettySize=auto;html=1;fontSize=19;" parent="1" source="fUtYuWxd-VH8Gu3rPX23-3" target="fUtYuWxd-VH8Gu3rPX23-22" edge="1">
          <mxGeometry relative="1" as="geometry" />
        </mxCell>
        <mxCell id="fUtYuWxd-VH8Gu3rPX23-3" value="Join Game Lambda" style="outlineConnect=0;dashed=0;verticalLabelPosition=bottom;verticalAlign=top;align=center;html=1;shape=mxgraph.aws3.lambda;fillColor=#F58534;gradientColor=none;fontSize=19;" parent="1" vertex="1">
          <mxGeometry x="127" y="457" width="76.5" height="93" as="geometry" />
        </mxCell>
        <mxCell id="fUtYuWxd-VH8Gu3rPX23-16" style="edgeStyle=orthogonalEdgeStyle;rounded=0;orthogonalLoop=1;jettySize=auto;html=1;entryX=0;entryY=0.5;entryDx=0;entryDy=0;entryPerimeter=0;fontSize=19;exitX=0.5;exitY=1;exitDx=0;exitDy=0;exitPerimeter=0;" parent="1" source="fUtYuWxd-VH8Gu3rPX23-39" target="fUtYuWxd-VH8Gu3rPX23-3" edge="1">
          <mxGeometry relative="1" as="geometry">
            <Array as="points">
              <mxPoint x="12" y="504" />
            </Array>
          </mxGeometry>
        </mxCell>
        <mxCell id="fUtYuWxd-VH8Gu3rPX23-27" style="edgeStyle=orthogonalEdgeStyle;rounded=0;orthogonalLoop=1;jettySize=auto;html=1;entryX=1;entryY=0.5;entryDx=0;entryDy=0;fontSize=19;" parent="1" source="fUtYuWxd-VH8Gu3rPX23-4" target="fUtYuWxd-VH8Gu3rPX23-25" edge="1">
          <mxGeometry relative="1" as="geometry" />
        </mxCell>
        <mxCell id="fUtYuWxd-VH8Gu3rPX23-40" style="edgeStyle=orthogonalEdgeStyle;rounded=0;orthogonalLoop=1;jettySize=auto;html=1;" parent="1" source="fUtYuWxd-VH8Gu3rPX23-4" edge="1">
          <mxGeometry relative="1" as="geometry">
            <mxPoint x="-30" y="292" as="targetPoint" />
          </mxGeometry>
        </mxCell>
        <mxCell id="fUtYuWxd-VH8Gu3rPX23-4" value="FrontEnd" style="image;aspect=fixed;html=1;points=[];align=center;fontSize=19;image=img/lib/azure2/general/Module.svg;" parent="1" vertex="1">
          <mxGeometry x="-190" y="260" width="64" height="64" as="geometry" />
        </mxCell>
        <mxCell id="fUtYuWxd-VH8Gu3rPX23-19" style="edgeStyle=orthogonalEdgeStyle;rounded=0;orthogonalLoop=1;jettySize=auto;html=1;fontSize=19;" parent="1" source="fUtYuWxd-VH8Gu3rPX23-5" target="fUtYuWxd-VH8Gu3rPX23-1" edge="1">
          <mxGeometry relative="1" as="geometry" />
        </mxCell>
        <mxCell id="fUtYuWxd-VH8Gu3rPX23-5" value="Game Details DynamoDB" style="sketch=0;points=[[0,0,0],[0.25,0,0],[0.5,0,0],[0.75,0,0],[1,0,0],[0,1,0],[0.25,1,0],[0.5,1,0],[0.75,1,0],[1,1,0],[0,0.25,0],[0,0.5,0],[0,0.75,0],[1,0.25,0],[1,0.5,0],[1,0.75,0]];outlineConnect=0;fontColor=#232F3E;gradientColor=#4D72F3;gradientDirection=north;fillColor=#3334B9;strokeColor=#ffffff;dashed=0;verticalLabelPosition=bottom;verticalAlign=top;align=center;html=1;fontSize=19;fontStyle=0;aspect=fixed;shape=mxgraph.aws4.resourceIcon;resIcon=mxgraph.aws4.dynamodb;" parent="1" vertex="1">
          <mxGeometry x="470" y="253" width="78" height="78" as="geometry" />
        </mxCell>
        <mxCell id="fUtYuWxd-VH8Gu3rPX23-7" value="Game Start Lambda" style="outlineConnect=0;dashed=0;verticalLabelPosition=bottom;verticalAlign=top;align=center;html=1;shape=mxgraph.aws3.lambda;fillColor=#F58534;gradientColor=none;fontSize=19;" parent="1" vertex="1">
          <mxGeometry x="410" y="700" width="76.5" height="93" as="geometry" />
        </mxCell>
        <mxCell id="fUtYuWxd-VH8Gu3rPX23-9" value="Joined Game DynamoDB" style="sketch=0;points=[[0,0,0],[0.25,0,0],[0.5,0,0],[0.75,0,0],[1,0,0],[0,1,0],[0.25,1,0],[0.5,1,0],[0.75,1,0],[1,1,0],[0,0.25,0],[0,0.5,0],[0,0.75,0],[1,0.25,0],[1,0.5,0],[1,0.75,0]];outlineConnect=0;fontColor=#232F3E;gradientColor=#4D72F3;gradientDirection=north;fillColor=#3334B9;strokeColor=#ffffff;dashed=0;verticalLabelPosition=bottom;verticalAlign=top;align=center;html=1;fontSize=19;fontStyle=0;aspect=fixed;shape=mxgraph.aws4.resourceIcon;resIcon=mxgraph.aws4.dynamodb;" parent="1" vertex="1">
          <mxGeometry x="710" y="464.5" width="78" height="78" as="geometry" />
        </mxCell>
        <mxCell id="fUtYuWxd-VH8Gu3rPX23-15" style="edgeStyle=orthogonalEdgeStyle;rounded=0;orthogonalLoop=1;jettySize=auto;html=1;entryX=0.5;entryY=0;entryDx=0;entryDy=0;entryPerimeter=0;fontSize=19;" parent="1" source="fUtYuWxd-VH8Gu3rPX23-14" target="fUtYuWxd-VH8Gu3rPX23-5" edge="1">
          <mxGeometry relative="1" as="geometry" />
        </mxCell>
        <mxCell id="fUtYuWxd-VH8Gu3rPX23-38" style="edgeStyle=orthogonalEdgeStyle;rounded=0;orthogonalLoop=1;jettySize=auto;html=1;entryX=0.5;entryY=0;entryDx=0;entryDy=0;" parent="1" source="fUtYuWxd-VH8Gu3rPX23-14" target="fUtYuWxd-VH8Gu3rPX23-34" edge="1">
          <mxGeometry relative="1" as="geometry" />
        </mxCell>
        <mxCell id="fUtYuWxd-VH8Gu3rPX23-14" value="Admin Module" style="image;aspect=fixed;html=1;points=[];align=center;fontSize=19;image=img/lib/azure2/general/Module.svg;" parent="1" vertex="1">
          <mxGeometry x="477" y="40" width="64" height="64" as="geometry" />
        </mxCell>
        <mxCell id="fUtYuWxd-VH8Gu3rPX23-22" value="Notification SNS&amp;nbsp;" style="outlineConnect=0;dashed=0;verticalLabelPosition=bottom;verticalAlign=top;align=center;html=1;shape=mxgraph.aws3.sns;fillColor=#D9A741;gradientColor=none;fontSize=19;" parent="1" vertex="1">
          <mxGeometry x="128" y="690" width="76.5" height="76.5" as="geometry" />
        </mxCell>
        <mxCell id="fUtYuWxd-VH8Gu3rPX23-29" style="edgeStyle=orthogonalEdgeStyle;rounded=0;orthogonalLoop=1;jettySize=auto;html=1;entryX=0.5;entryY=0;entryDx=0;entryDy=0;fontSize=19;" parent="1" source="fUtYuWxd-VH8Gu3rPX23-25" target="fUtYuWxd-VH8Gu3rPX23-28" edge="1">
          <mxGeometry relative="1" as="geometry" />
        </mxCell>
        <mxCell id="fUtYuWxd-VH8Gu3rPX23-31" style="edgeStyle=orthogonalEdgeStyle;rounded=0;orthogonalLoop=1;jettySize=auto;html=1;entryX=1;entryY=0.5;entryDx=0;entryDy=0;fontSize=19;" parent="1" source="fUtYuWxd-VH8Gu3rPX23-25" target="fUtYuWxd-VH8Gu3rPX23-30" edge="1">
          <mxGeometry relative="1" as="geometry" />
        </mxCell>
        <mxCell id="fUtYuWxd-VH8Gu3rPX23-25" value="" style="strokeColor=#dddddd;shadow=1;strokeWidth=1;rounded=1;absoluteArcSize=1;arcSize=2;fontSize=19;" parent="1" vertex="1">
          <mxGeometry x="-550" y="253" width="190" height="78" as="geometry" />
        </mxCell>
        <mxCell id="fUtYuWxd-VH8Gu3rPX23-26" value="Question Tagging Module" style="editableCssRules=.*;html=1;fontColor=#999999;shape=image;verticalLabelPosition=middle;labelBackgroundColor=#ffffff;verticalAlign=middle;labelPosition=right;align=left;spacingLeft=20;part=1;points=[];imageAspect=0;image=data:image/svg+xml,PHN2ZyB4bWxucz0iaHR0cDovL3d3dy53My5vcmcvMjAwMC9zdmciIHhtbG5zOnY9Imh0dHBzOi8vdmVjdGEuaW8vbmFubyIgd2lkdGg9IjIwIiBoZWlnaHQ9IjE5Ljk4OTk5OTc3MTExODE2NCIgdmlld0JveD0iMCAwIDIwIDE5Ljk4OTk5OTc3MTExODE2NCI+JiN4YTsJPHN0eWxlIHR5cGU9InRleHQvY3NzIj4mI3hhOwkuc3Qwe2ZpbGw6IzQyODVmNDt9JiN4YTsJLnN0MXtmaWxsOiM2NjlkZjY7fSYjeGE7CS5zdDJ7ZmlsbDojYWVjYmZhO30mI3hhOwk8L3N0eWxlPiYjeGE7CTxwYXRoIGNsYXNzPSJzdDEiIGQ9Ik0zIDMuOTlMMCA2LjQydjcuMTNsMyAyLjQ0eiIvPiYjeGE7CTxwYXRoIGNsYXNzPSJzdDAiIGQ9Ik0zIDMuOTlsLTMgNCAzLTJ6bS0zIDhsMyA0di0yeiIvPiYjeGE7CTxwYXRoIGNsYXNzPSJzdDIiIGQ9Ik0wIDE1Ljk5bDQgNCAyLTItNi02em0uMDEtOEw1Ljk5IDJsLTItMkwwIDMuOTl6Ii8+JiN4YTsJPHBhdGggY2xhc3M9InN0MSIgZD0iTTE3IDE2bDMtMi40MlY2LjQ0TDE3IDR6Ii8+JiN4YTsJPHBhdGggY2xhc3M9InN0MCIgZD0iTTE3IDE2bDMtNC0zIDJ6bTMtOGwtMy00djJ6Ii8+JiN4YTsJPGcgY2xhc3M9InN0MiI+JiN4YTsJCTxwYXRoIGQ9Ik0yMCA0bC00LTQtMiAyIDYgNnptLS4wMSA4bC01Ljk4IDUuOTkgMiAyTDIwIDE2eiIvPiYjeGE7CQk8Y2lyY2xlIGN4PSI2IiBjeT0iOS45OSIgcj0iMSIvPiYjeGE7CQk8Y2lyY2xlIGN4PSIxMCIgY3k9IjkuOTkiIHI9IjEiLz4mI3hhOwkJPGNpcmNsZSBjeD0iMTMuOTkiIGN5PSI5Ljk5IiByPSIxIi8+JiN4YTsJPC9nPiYjeGE7PC9zdmc+;fontSize=19;" parent="fUtYuWxd-VH8Gu3rPX23-25" vertex="1">
          <mxGeometry width="30" height="24" relative="1" as="geometry">
            <mxPoint x="15" y="18" as="offset" />
          </mxGeometry>
        </mxCell>
        <mxCell id="fUtYuWxd-VH8Gu3rPX23-28" value="Natural Language API&amp;nbsp;" style="editableCssRules=.*;html=1;shape=image;verticalLabelPosition=bottom;labelBackgroundColor=#ffffff;verticalAlign=top;aspect=fixed;imageAspect=0;image=data:image/svg+xml,PHN2ZyB4bWxucz0iaHR0cDovL3d3dy53My5vcmcvMjAwMC9zdmciIHhtbG5zOnY9Imh0dHBzOi8vdmVjdGEuaW8vbmFubyIgd2lkdGg9IjIwIiBoZWlnaHQ9IjE2IiB2aWV3Qm94PSIwIDAgMjAgMTYiPiYjeGE7CTxzdHlsZSB0eXBlPSJ0ZXh0L2NzcyI+JiN4YTsJLnN0MHtmaWxsOiM2NjlkZjY7fSYjeGE7CS5zdDF7ZmlsbDojNDI4NWY0O30mI3hhOwkuc3Qye2ZpbGw6I2FlY2JmYTt9JiN4YTsJPC9zdHlsZT4mI3hhOwk8cGF0aCBjbGFzcz0ic3QwIiBkPSJNMTUgMmgzdjEyaC0zdjJoMyAydi0yVjIgMGgtMi0zeiIvPiYjeGE7CTxwYXRoIGNsYXNzPSJzdDEiIGQ9Ik0xOCAydjFsMi0xem0yIDEydi0xbC0yIDF6Ii8+JiN4YTsJPHBhdGggY2xhc3M9InN0MCIgZD0iTTUgMTRIMlYyaDNWMEgyIDB2MiAxMiAyaDIgM3oiLz4mI3hhOwk8cGF0aCBjbGFzcz0ic3QxIiBkPSJNMCAxNHYtMWwyIDF6TTIgMnYxTDAgMnoiLz4mI3hhOwk8cGF0aCBjbGFzcz0ic3QyIiBkPSJNNSA3aDEwdjJINXptMCAzaDEwdjJINXptMC02aDEwdjJINXoiLz4mI3hhOzwvc3ZnPg==;fontSize=19;" parent="1" vertex="1">
          <mxGeometry x="-502.5" y="500" width="95" height="76" as="geometry" />
        </mxCell>
        <mxCell id="fUtYuWxd-VH8Gu3rPX23-30" value="Question Tag Database&amp;nbsp;" style="editableCssRules=.*;html=1;shape=image;verticalLabelPosition=bottom;labelBackgroundColor=#ffffff;verticalAlign=top;aspect=fixed;imageAspect=0;image=data:image/svg+xml,PHN2ZyB4bWxucz0iaHR0cDovL3d3dy53My5vcmcvMjAwMC9zdmciIHhtbG5zOnY9Imh0dHBzOi8vdmVjdGEuaW8vbmFubyIgd2lkdGg9IjMyMy45MDU2MTAzOTg2NzUxNSIgaGVpZ2h0PSIzNzYuNDIyMjk0OTYzNjg0MDciIHZpZXdCb3g9Ii0wLjA5NzAwMDAwMjg2MTAyMjk1IDAuMjg3OTk5OTg3NjAyMjMzOSA4NS42OTk5OTY5NDgyNDIxOSA5OS41OTUwMDEyMjA3MDMxMiI+JiN4YTs8c3R5bGUgdHlwZT0idGV4dC9jc3MiPiYjeGE7CS5zdDB7ZmlsbDojYWVjYmZhO30mI3hhOwkuc3Qxe2ZpbGw6IzY2OWRmNjt9JiN4YTsJLnN0MntmaWxsOiM0Mjg1ZjQ7fSYjeGE7PC9zdHlsZT4mI3hhOwk8cGF0aCBjbGFzcz0ic3QwIiBkPSJNLS4wOTcgNzUuODE1VjU1Ljg3NGw0Mi44NS0yMC4xODN2MTkuMDd6bTAtMzUuNDAzVjIwLjQ3MUw0Mi43NTMuMjg4djE5LjA3eiIvPiYjeGE7CTxwYXRoIGNsYXNzPSJzdDEiIGQ9Ik04NS42MDMgNzUuODE1VjU1Ljg3NGwtNDIuODUtMjAuMTgzdjE5LjA3em0wLTM1LjQwM1YyMC40NzFMNDIuNzUzLjI4OHYxOS4wN3oiLz4mI3hhOwk8cGF0aCBjbGFzcz0ic3QyIiBkPSJNNDIuNzUzIDgwLjMxNGwxNi4yMTctNy41MjUgMjEuMDg0IDkuNzE3LTM3LjMwMSAxNy4zNzd6Ii8+JiN4YTs8L3N2Zz4=;fontSize=19;" parent="1" vertex="1">
          <mxGeometry x="-760" y="252" width="67.15" height="79" as="geometry" />
        </mxCell>
        <mxCell id="fUtYuWxd-VH8Gu3rPX23-32" value="" style="rounded=0;whiteSpace=wrap;html=1;fillColor=none;strokeWidth=1;dashed=1;dashPattern=1 1;fontSize=19;" parent="1" vertex="1">
          <mxGeometry x="-60" y="170" width="960" height="680" as="geometry" />
        </mxCell>
        <mxCell id="fUtYuWxd-VH8Gu3rPX23-33" value="Trivia Game Lobby" style="text;html=1;strokeColor=none;fillColor=none;align=center;verticalAlign=middle;whiteSpace=wrap;rounded=0;fontSize=19;fontStyle=1" parent="1" vertex="1">
          <mxGeometry x="630" y="793" width="280" height="60" as="geometry" />
        </mxCell>
        <mxCell id="fUtYuWxd-VH8Gu3rPX23-34" value="" style="rounded=0;whiteSpace=wrap;html=1;fillColor=none;strokeWidth=1;dashed=1;dashPattern=1 1;fontSize=19;" parent="1" vertex="1">
          <mxGeometry x="-830" y="170" width="600" height="680" as="geometry" />
        </mxCell>
        <mxCell id="fUtYuWxd-VH8Gu3rPX23-36" value="Question Tagging Module" style="text;html=1;strokeColor=none;fillColor=none;align=center;verticalAlign=middle;whiteSpace=wrap;rounded=0;fontSize=19;fontStyle=1" parent="1" vertex="1">
          <mxGeometry x="-490" y="808" width="250" height="30" as="geometry" />
        </mxCell>
        <mxCell id="fUtYuWxd-VH8Gu3rPX23-42" style="edgeStyle=orthogonalEdgeStyle;rounded=0;orthogonalLoop=1;jettySize=auto;html=1;" parent="1" source="fUtYuWxd-VH8Gu3rPX23-39" edge="1">
          <mxGeometry relative="1" as="geometry">
            <mxPoint x="200" y="298.5" as="targetPoint" />
          </mxGeometry>
        </mxCell>
        <mxCell id="fUtYuWxd-VH8Gu3rPX23-39" value="&lt;font style=&quot;font-size: 18px;&quot;&gt;API GAteway&lt;/font&gt;" style="outlineConnect=0;dashed=0;verticalLabelPosition=bottom;verticalAlign=top;align=center;html=1;shape=mxgraph.aws3.api_gateway;fillColor=#D9A741;gradientColor=none;" parent="1" vertex="1">
          <mxGeometry x="-26.5" y="252" width="76.5" height="93" as="geometry" />
        </mxCell>
        <mxCell id="kNGBd98Y1CKDyoNw-E7V-1" value="&lt;b style=&quot;font-size: 24px;&quot;&gt;Harshil - Feature 1 -&amp;nbsp;User Authentication&lt;br&gt;&amp;nbsp;&amp;amp; Feature 2 -&amp;nbsp;User Profile Management&lt;/b&gt;" style="fillColor=#EFF0F3;strokeColor=none;dashed=0;verticalAlign=top;fontStyle=0;fontColor=#232F3D;whiteSpace=wrap;html=1;" vertex="1" parent="1">
          <mxGeometry x="30" y="1020" width="2010" height="1540" as="geometry" />
        </mxCell>
        <mxCell id="kNGBd98Y1CKDyoNw-E7V-2" style="edgeStyle=orthogonalEdgeStyle;rounded=0;orthogonalLoop=1;jettySize=auto;html=1;entryX=0;entryY=0.21;entryDx=0;entryDy=0;entryPerimeter=0;" edge="1" parent="1" source="kNGBd98Y1CKDyoNw-E7V-14" target="kNGBd98Y1CKDyoNw-E7V-18">
          <mxGeometry relative="1" as="geometry" />
        </mxCell>
        <mxCell id="kNGBd98Y1CKDyoNw-E7V-3" style="edgeStyle=orthogonalEdgeStyle;rounded=0;orthogonalLoop=1;jettySize=auto;html=1;" edge="1" parent="1" source="kNGBd98Y1CKDyoNw-E7V-14" target="kNGBd98Y1CKDyoNw-E7V-21">
          <mxGeometry relative="1" as="geometry" />
        </mxCell>
        <mxCell id="kNGBd98Y1CKDyoNw-E7V-4" style="edgeStyle=orthogonalEdgeStyle;rounded=0;orthogonalLoop=1;jettySize=auto;html=1;entryX=0;entryY=0.8;entryDx=0;entryDy=0;entryPerimeter=0;" edge="1" parent="1" source="kNGBd98Y1CKDyoNw-E7V-14" target="kNGBd98Y1CKDyoNw-E7V-35">
          <mxGeometry relative="1" as="geometry">
            <mxPoint x="620" y="1680" as="targetPoint" />
          </mxGeometry>
        </mxCell>
        <mxCell id="kNGBd98Y1CKDyoNw-E7V-5" style="edgeStyle=orthogonalEdgeStyle;rounded=0;orthogonalLoop=1;jettySize=auto;html=1;entryX=0;entryY=0.21;entryDx=0;entryDy=0;entryPerimeter=0;" edge="1" parent="1" source="kNGBd98Y1CKDyoNw-E7V-14" target="kNGBd98Y1CKDyoNw-E7V-24">
          <mxGeometry relative="1" as="geometry" />
        </mxCell>
        <mxCell id="kNGBd98Y1CKDyoNw-E7V-6" style="edgeStyle=orthogonalEdgeStyle;rounded=0;orthogonalLoop=1;jettySize=auto;html=1;entryX=0;entryY=0.21;entryDx=0;entryDy=0;entryPerimeter=0;" edge="1" parent="1" source="kNGBd98Y1CKDyoNw-E7V-14" target="kNGBd98Y1CKDyoNw-E7V-27">
          <mxGeometry relative="1" as="geometry" />
        </mxCell>
        <mxCell id="kNGBd98Y1CKDyoNw-E7V-7" style="edgeStyle=orthogonalEdgeStyle;rounded=0;orthogonalLoop=1;jettySize=auto;html=1;entryX=0;entryY=0.21;entryDx=0;entryDy=0;entryPerimeter=0;" edge="1" parent="1" source="kNGBd98Y1CKDyoNw-E7V-14" target="kNGBd98Y1CKDyoNw-E7V-58">
          <mxGeometry relative="1" as="geometry" />
        </mxCell>
        <mxCell id="kNGBd98Y1CKDyoNw-E7V-8" style="edgeStyle=orthogonalEdgeStyle;rounded=0;orthogonalLoop=1;jettySize=auto;html=1;entryX=0;entryY=0.21;entryDx=0;entryDy=0;entryPerimeter=0;" edge="1" parent="1" source="kNGBd98Y1CKDyoNw-E7V-14" target="kNGBd98Y1CKDyoNw-E7V-30">
          <mxGeometry relative="1" as="geometry" />
        </mxCell>
        <mxCell id="kNGBd98Y1CKDyoNw-E7V-9" style="edgeStyle=orthogonalEdgeStyle;rounded=0;orthogonalLoop=1;jettySize=auto;html=1;entryX=0;entryY=0.21;entryDx=0;entryDy=0;entryPerimeter=0;" edge="1" parent="1" source="kNGBd98Y1CKDyoNw-E7V-14" target="kNGBd98Y1CKDyoNw-E7V-61">
          <mxGeometry relative="1" as="geometry" />
        </mxCell>
        <mxCell id="kNGBd98Y1CKDyoNw-E7V-10" style="edgeStyle=orthogonalEdgeStyle;rounded=0;orthogonalLoop=1;jettySize=auto;html=1;entryX=1;entryY=0.5;entryDx=0;entryDy=0;" edge="1" parent="1" source="kNGBd98Y1CKDyoNw-E7V-14" target="kNGBd98Y1CKDyoNw-E7V-63">
          <mxGeometry relative="1" as="geometry" />
        </mxCell>
        <mxCell id="kNGBd98Y1CKDyoNw-E7V-11" value="Auth with email, Google, Facebook" style="edgeLabel;html=1;align=center;verticalAlign=middle;resizable=0;points=[];" vertex="1" connectable="0" parent="kNGBd98Y1CKDyoNw-E7V-10">
          <mxGeometry x="-0.3054" y="-3" relative="1" as="geometry">
            <mxPoint as="offset" />
          </mxGeometry>
        </mxCell>
        <mxCell id="kNGBd98Y1CKDyoNw-E7V-12" style="edgeStyle=orthogonalEdgeStyle;rounded=0;orthogonalLoop=1;jettySize=auto;html=1;" edge="1" parent="1" source="kNGBd98Y1CKDyoNw-E7V-14" target="kNGBd98Y1CKDyoNw-E7V-65">
          <mxGeometry relative="1" as="geometry">
            <Array as="points">
              <mxPoint x="143" y="1410" />
            </Array>
          </mxGeometry>
        </mxCell>
        <mxCell id="kNGBd98Y1CKDyoNw-E7V-13" value="Upload Profile Picture" style="edgeLabel;html=1;align=center;verticalAlign=middle;resizable=0;points=[];" vertex="1" connectable="0" parent="kNGBd98Y1CKDyoNw-E7V-12">
          <mxGeometry x="-0.1256" y="5" relative="1" as="geometry">
            <mxPoint y="-1" as="offset" />
          </mxGeometry>
        </mxCell>
        <mxCell id="kNGBd98Y1CKDyoNw-E7V-14" value="" style="sketch=0;outlineConnect=0;fontColor=#232F3E;gradientColor=none;fillColor=#232F3D;strokeColor=none;dashed=0;verticalLabelPosition=bottom;verticalAlign=top;align=center;html=1;fontSize=12;fontStyle=0;aspect=fixed;pointerEvents=1;shape=mxgraph.aws4.user;" vertex="1" parent="1">
          <mxGeometry x="520" y="1350" width="78" height="78" as="geometry" />
        </mxCell>
        <mxCell id="kNGBd98Y1CKDyoNw-E7V-15" value="&lt;font style=&quot;font-size: 16px;&quot;&gt;AWS Cloud&lt;/font&gt;" style="points=[[0,0],[0.25,0],[0.5,0],[0.75,0],[1,0],[1,0.25],[1,0.5],[1,0.75],[1,1],[0.75,1],[0.5,1],[0.25,1],[0,1],[0,0.75],[0,0.5],[0,0.25]];outlineConnect=0;gradientColor=none;html=1;whiteSpace=wrap;fontSize=12;fontStyle=0;container=1;pointerEvents=0;collapsible=0;recursiveResize=0;shape=mxgraph.aws4.group;grIcon=mxgraph.aws4.group_aws_cloud_alt;strokeColor=#232F3E;fillColor=none;verticalAlign=top;align=left;spacingLeft=30;fontColor=#232F3E;dashed=0;" vertex="1" parent="1">
          <mxGeometry x="770" y="1150" width="1220" height="1340" as="geometry" />
        </mxCell>
        <mxCell id="kNGBd98Y1CKDyoNw-E7V-16" style="edgeStyle=orthogonalEdgeStyle;rounded=0;orthogonalLoop=1;jettySize=auto;html=1;" edge="1" parent="kNGBd98Y1CKDyoNw-E7V-15" source="kNGBd98Y1CKDyoNw-E7V-18" target="kNGBd98Y1CKDyoNw-E7V-37">
          <mxGeometry relative="1" as="geometry" />
        </mxCell>
        <mxCell id="kNGBd98Y1CKDyoNw-E7V-17" value="POST" style="edgeLabel;html=1;align=center;verticalAlign=middle;resizable=0;points=[];" vertex="1" connectable="0" parent="kNGBd98Y1CKDyoNw-E7V-16">
          <mxGeometry x="-0.2605" y="3" relative="1" as="geometry">
            <mxPoint x="11" y="3" as="offset" />
          </mxGeometry>
        </mxCell>
        <mxCell id="kNGBd98Y1CKDyoNw-E7V-18" value="check_security_question_dynamo" style="outlineConnect=0;dashed=0;verticalLabelPosition=bottom;verticalAlign=top;align=center;html=1;shape=mxgraph.aws3.api_gateway;fillColor=#D9A741;gradientColor=none;" vertex="1" parent="kNGBd98Y1CKDyoNw-E7V-15">
          <mxGeometry x="130" y="110" width="76.5" height="93" as="geometry" />
        </mxCell>
        <mxCell id="kNGBd98Y1CKDyoNw-E7V-19" style="edgeStyle=orthogonalEdgeStyle;rounded=0;orthogonalLoop=1;jettySize=auto;html=1;" edge="1" parent="kNGBd98Y1CKDyoNw-E7V-15" source="kNGBd98Y1CKDyoNw-E7V-21" target="kNGBd98Y1CKDyoNw-E7V-39">
          <mxGeometry relative="1" as="geometry" />
        </mxCell>
        <mxCell id="kNGBd98Y1CKDyoNw-E7V-20" value="POST" style="edgeLabel;html=1;align=center;verticalAlign=middle;resizable=0;points=[];" vertex="1" connectable="0" parent="kNGBd98Y1CKDyoNw-E7V-19">
          <mxGeometry x="-0.0139" y="1" relative="1" as="geometry">
            <mxPoint as="offset" />
          </mxGeometry>
        </mxCell>
        <mxCell id="kNGBd98Y1CKDyoNw-E7V-21" value="fetchQuesFirstNameLastNameByUserID" style="outlineConnect=0;dashed=0;verticalLabelPosition=bottom;verticalAlign=top;align=center;html=1;shape=mxgraph.aws3.api_gateway;fillColor=#D9A741;gradientColor=none;" vertex="1" parent="kNGBd98Y1CKDyoNw-E7V-15">
          <mxGeometry x="130" y="260" width="76.5" height="93" as="geometry" />
        </mxCell>
        <mxCell id="kNGBd98Y1CKDyoNw-E7V-22" style="edgeStyle=orthogonalEdgeStyle;rounded=0;orthogonalLoop=1;jettySize=auto;html=1;entryX=0;entryY=0.5;entryDx=0;entryDy=0;entryPerimeter=0;" edge="1" parent="kNGBd98Y1CKDyoNw-E7V-15" source="kNGBd98Y1CKDyoNw-E7V-24" target="kNGBd98Y1CKDyoNw-E7V-45">
          <mxGeometry relative="1" as="geometry" />
        </mxCell>
        <mxCell id="kNGBd98Y1CKDyoNw-E7V-23" value="GET" style="edgeLabel;html=1;align=center;verticalAlign=middle;resizable=0;points=[];" vertex="1" connectable="0" parent="kNGBd98Y1CKDyoNw-E7V-22">
          <mxGeometry x="-0.3452" y="2" relative="1" as="geometry">
            <mxPoint as="offset" />
          </mxGeometry>
        </mxCell>
        <mxCell id="kNGBd98Y1CKDyoNw-E7V-24" value="getAllUsers" style="outlineConnect=0;dashed=0;verticalLabelPosition=bottom;verticalAlign=top;align=center;html=1;shape=mxgraph.aws3.api_gateway;fillColor=#D9A741;gradientColor=none;" vertex="1" parent="kNGBd98Y1CKDyoNw-E7V-15">
          <mxGeometry x="120" y="560" width="76.5" height="93" as="geometry" />
        </mxCell>
        <mxCell id="kNGBd98Y1CKDyoNw-E7V-25" style="edgeStyle=orthogonalEdgeStyle;rounded=0;orthogonalLoop=1;jettySize=auto;html=1;" edge="1" parent="kNGBd98Y1CKDyoNw-E7V-15" source="kNGBd98Y1CKDyoNw-E7V-27" target="kNGBd98Y1CKDyoNw-E7V-47">
          <mxGeometry relative="1" as="geometry" />
        </mxCell>
        <mxCell id="kNGBd98Y1CKDyoNw-E7V-26" value="GET" style="edgeLabel;html=1;align=center;verticalAlign=middle;resizable=0;points=[];" vertex="1" connectable="0" parent="kNGBd98Y1CKDyoNw-E7V-25">
          <mxGeometry x="-0.3871" relative="1" as="geometry">
            <mxPoint as="offset" />
          </mxGeometry>
        </mxCell>
        <mxCell id="kNGBd98Y1CKDyoNw-E7V-27" value="getQuestionsFromDynamo" style="outlineConnect=0;dashed=0;verticalLabelPosition=bottom;verticalAlign=top;align=center;html=1;shape=mxgraph.aws3.api_gateway;fillColor=#D9A741;gradientColor=none;" vertex="1" parent="kNGBd98Y1CKDyoNw-E7V-15">
          <mxGeometry x="120" y="700" width="76.5" height="93" as="geometry" />
        </mxCell>
        <mxCell id="kNGBd98Y1CKDyoNw-E7V-28" style="edgeStyle=orthogonalEdgeStyle;rounded=0;orthogonalLoop=1;jettySize=auto;html=1;" edge="1" parent="kNGBd98Y1CKDyoNw-E7V-15" source="kNGBd98Y1CKDyoNw-E7V-30" target="kNGBd98Y1CKDyoNw-E7V-51">
          <mxGeometry relative="1" as="geometry" />
        </mxCell>
        <mxCell id="kNGBd98Y1CKDyoNw-E7V-29" value="PUT" style="edgeLabel;html=1;align=center;verticalAlign=middle;resizable=0;points=[];" vertex="1" connectable="0" parent="kNGBd98Y1CKDyoNw-E7V-28">
          <mxGeometry x="-0.1214" y="2" relative="1" as="geometry">
            <mxPoint as="offset" />
          </mxGeometry>
        </mxCell>
        <mxCell id="kNGBd98Y1CKDyoNw-E7V-30" value="storeUserToDynamoDB" style="outlineConnect=0;dashed=0;verticalLabelPosition=bottom;verticalAlign=top;align=center;html=1;shape=mxgraph.aws3.api_gateway;fillColor=#D9A741;gradientColor=none;" vertex="1" parent="kNGBd98Y1CKDyoNw-E7V-15">
          <mxGeometry x="110" y="999" width="76.5" height="93" as="geometry" />
        </mxCell>
        <mxCell id="kNGBd98Y1CKDyoNw-E7V-31" style="edgeStyle=orthogonalEdgeStyle;rounded=0;orthogonalLoop=1;jettySize=auto;html=1;" edge="1" parent="kNGBd98Y1CKDyoNw-E7V-15" source="kNGBd98Y1CKDyoNw-E7V-35" target="kNGBd98Y1CKDyoNw-E7V-41">
          <mxGeometry relative="1" as="geometry" />
        </mxCell>
        <mxCell id="kNGBd98Y1CKDyoNw-E7V-32" value="GET" style="edgeLabel;html=1;align=center;verticalAlign=middle;resizable=0;points=[];" vertex="1" connectable="0" parent="kNGBd98Y1CKDyoNw-E7V-31">
          <mxGeometry x="-0.1373" y="3" relative="1" as="geometry">
            <mxPoint x="98" y="-43" as="offset" />
          </mxGeometry>
        </mxCell>
        <mxCell id="kNGBd98Y1CKDyoNw-E7V-33" style="edgeStyle=orthogonalEdgeStyle;rounded=0;orthogonalLoop=1;jettySize=auto;html=1;" edge="1" parent="kNGBd98Y1CKDyoNw-E7V-15" source="kNGBd98Y1CKDyoNw-E7V-35" target="kNGBd98Y1CKDyoNw-E7V-43">
          <mxGeometry relative="1" as="geometry" />
        </mxCell>
        <mxCell id="kNGBd98Y1CKDyoNw-E7V-34" value="POST" style="edgeLabel;html=1;align=center;verticalAlign=middle;resizable=0;points=[];" vertex="1" connectable="0" parent="kNGBd98Y1CKDyoNw-E7V-33">
          <mxGeometry x="0.4682" relative="1" as="geometry">
            <mxPoint x="-1" as="offset" />
          </mxGeometry>
        </mxCell>
        <mxCell id="kNGBd98Y1CKDyoNw-E7V-35" value="gameCompletionUserDetailsUpdate" style="outlineConnect=0;dashed=0;verticalLabelPosition=bottom;verticalAlign=top;align=center;html=1;shape=mxgraph.aws3.api_gateway;fillColor=#D9A741;gradientColor=none;" vertex="1" parent="kNGBd98Y1CKDyoNw-E7V-15">
          <mxGeometry x="120" y="414.5" width="76.5" height="93" as="geometry" />
        </mxCell>
        <mxCell id="kNGBd98Y1CKDyoNw-E7V-36" style="edgeStyle=orthogonalEdgeStyle;rounded=0;orthogonalLoop=1;jettySize=auto;html=1;" edge="1" parent="kNGBd98Y1CKDyoNw-E7V-15" source="kNGBd98Y1CKDyoNw-E7V-37" target="kNGBd98Y1CKDyoNw-E7V-54">
          <mxGeometry relative="1" as="geometry" />
        </mxCell>
        <mxCell id="kNGBd98Y1CKDyoNw-E7V-37" value="CheckSecurityQuestions" style="sketch=0;points=[[0,0,0],[0.25,0,0],[0.5,0,0],[0.75,0,0],[1,0,0],[0,1,0],[0.25,1,0],[0.5,1,0],[0.75,1,0],[1,1,0],[0,0.25,0],[0,0.5,0],[0,0.75,0],[1,0.25,0],[1,0.5,0],[1,0.75,0]];outlineConnect=0;fontColor=#232F3E;gradientColor=#F78E04;gradientDirection=north;fillColor=#D05C17;strokeColor=#ffffff;dashed=0;verticalLabelPosition=bottom;verticalAlign=top;align=center;html=1;fontSize=12;fontStyle=0;aspect=fixed;shape=mxgraph.aws4.resourceIcon;resIcon=mxgraph.aws4.lambda;" vertex="1" parent="kNGBd98Y1CKDyoNw-E7V-15">
          <mxGeometry x="650" y="117.5" width="78" height="78" as="geometry" />
        </mxCell>
        <mxCell id="kNGBd98Y1CKDyoNw-E7V-38" style="edgeStyle=orthogonalEdgeStyle;rounded=0;orthogonalLoop=1;jettySize=auto;html=1;" edge="1" parent="kNGBd98Y1CKDyoNw-E7V-15" source="kNGBd98Y1CKDyoNw-E7V-39" target="kNGBd98Y1CKDyoNw-E7V-54">
          <mxGeometry relative="1" as="geometry">
            <Array as="points">
              <mxPoint x="1010" y="280" />
              <mxPoint x="1010" y="280" />
            </Array>
          </mxGeometry>
        </mxCell>
        <mxCell id="kNGBd98Y1CKDyoNw-E7V-39" value="fetchQuesFirstNameLastNameByUserID" style="sketch=0;points=[[0,0,0],[0.25,0,0],[0.5,0,0],[0.75,0,0],[1,0,0],[0,1,0],[0.25,1,0],[0.5,1,0],[0.75,1,0],[1,1,0],[0,0.25,0],[0,0.5,0],[0,0.75,0],[1,0.25,0],[1,0.5,0],[1,0.75,0]];outlineConnect=0;fontColor=#232F3E;gradientColor=#F78E04;gradientDirection=north;fillColor=#D05C17;strokeColor=#ffffff;dashed=0;verticalLabelPosition=bottom;verticalAlign=top;align=center;html=1;fontSize=12;fontStyle=0;aspect=fixed;shape=mxgraph.aws4.resourceIcon;resIcon=mxgraph.aws4.lambda;" vertex="1" parent="kNGBd98Y1CKDyoNw-E7V-15">
          <mxGeometry x="640" y="267.5" width="78" height="78" as="geometry" />
        </mxCell>
        <mxCell id="kNGBd98Y1CKDyoNw-E7V-40" style="edgeStyle=orthogonalEdgeStyle;rounded=0;orthogonalLoop=1;jettySize=auto;html=1;" edge="1" parent="kNGBd98Y1CKDyoNw-E7V-15">
          <mxGeometry relative="1" as="geometry">
            <mxPoint x="718" y="425" as="sourcePoint" />
            <mxPoint x="1070" y="300" as="targetPoint" />
            <Array as="points">
              <mxPoint x="894" y="425" />
              <mxPoint x="894" y="300" />
            </Array>
          </mxGeometry>
        </mxCell>
        <mxCell id="kNGBd98Y1CKDyoNw-E7V-41" value="getGameDetailsByUserID" style="sketch=0;points=[[0,0,0],[0.25,0,0],[0.5,0,0],[0.75,0,0],[1,0,0],[0,1,0],[0.25,1,0],[0.5,1,0],[0.75,1,0],[1,1,0],[0,0.25,0],[0,0.5,0],[0,0.75,0],[1,0.25,0],[1,0.5,0],[1,0.75,0]];outlineConnect=0;fontColor=#232F3E;gradientColor=#F78E04;gradientDirection=north;fillColor=#D05C17;strokeColor=#ffffff;dashed=0;verticalLabelPosition=bottom;verticalAlign=top;align=center;html=1;fontSize=12;fontStyle=0;aspect=fixed;shape=mxgraph.aws4.resourceIcon;resIcon=mxgraph.aws4.lambda;" vertex="1" parent="kNGBd98Y1CKDyoNw-E7V-15">
          <mxGeometry x="640" y="376" width="78" height="78" as="geometry" />
        </mxCell>
        <mxCell id="kNGBd98Y1CKDyoNw-E7V-42" style="edgeStyle=orthogonalEdgeStyle;rounded=0;orthogonalLoop=1;jettySize=auto;html=1;exitX=1;exitY=0.5;exitDx=0;exitDy=0;exitPerimeter=0;" edge="1" parent="kNGBd98Y1CKDyoNw-E7V-15" source="kNGBd98Y1CKDyoNw-E7V-43" target="kNGBd98Y1CKDyoNw-E7V-54">
          <mxGeometry relative="1" as="geometry" />
        </mxCell>
        <mxCell id="kNGBd98Y1CKDyoNw-E7V-43" value="gameCompletionUserDetailsUpdate" style="sketch=0;points=[[0,0,0],[0.25,0,0],[0.5,0,0],[0.75,0,0],[1,0,0],[0,1,0],[0.25,1,0],[0.5,1,0],[0.75,1,0],[1,1,0],[0,0.25,0],[0,0.5,0],[0,0.75,0],[1,0.25,0],[1,0.5,0],[1,0.75,0]];outlineConnect=0;fontColor=#232F3E;gradientColor=#F78E04;gradientDirection=north;fillColor=#D05C17;strokeColor=#ffffff;dashed=0;verticalLabelPosition=bottom;verticalAlign=top;align=center;html=1;fontSize=12;fontStyle=0;aspect=fixed;shape=mxgraph.aws4.resourceIcon;resIcon=mxgraph.aws4.lambda;" vertex="1" parent="kNGBd98Y1CKDyoNw-E7V-15">
          <mxGeometry x="640" y="500" width="78" height="78" as="geometry" />
        </mxCell>
        <mxCell id="kNGBd98Y1CKDyoNw-E7V-44" style="edgeStyle=orthogonalEdgeStyle;rounded=0;orthogonalLoop=1;jettySize=auto;html=1;exitX=1;exitY=0.5;exitDx=0;exitDy=0;exitPerimeter=0;" edge="1" parent="kNGBd98Y1CKDyoNw-E7V-15" source="kNGBd98Y1CKDyoNw-E7V-45" target="kNGBd98Y1CKDyoNw-E7V-54">
          <mxGeometry relative="1" as="geometry" />
        </mxCell>
        <mxCell id="kNGBd98Y1CKDyoNw-E7V-45" value="getAllUsersSDP" style="sketch=0;points=[[0,0,0],[0.25,0,0],[0.5,0,0],[0.75,0,0],[1,0,0],[0,1,0],[0.25,1,0],[0.5,1,0],[0.75,1,0],[1,1,0],[0,0.25,0],[0,0.5,0],[0,0.75,0],[1,0.25,0],[1,0.5,0],[1,0.75,0]];outlineConnect=0;fontColor=#232F3E;gradientColor=#F78E04;gradientDirection=north;fillColor=#D05C17;strokeColor=#ffffff;dashed=0;verticalLabelPosition=bottom;verticalAlign=top;align=center;html=1;fontSize=12;fontStyle=0;aspect=fixed;shape=mxgraph.aws4.resourceIcon;resIcon=mxgraph.aws4.lambda;" vertex="1" parent="kNGBd98Y1CKDyoNw-E7V-15">
          <mxGeometry x="640" y="622" width="78" height="78" as="geometry" />
        </mxCell>
        <mxCell id="kNGBd98Y1CKDyoNw-E7V-46" style="edgeStyle=orthogonalEdgeStyle;rounded=0;orthogonalLoop=1;jettySize=auto;html=1;" edge="1" parent="kNGBd98Y1CKDyoNw-E7V-15" source="kNGBd98Y1CKDyoNw-E7V-47" target="kNGBd98Y1CKDyoNw-E7V-55">
          <mxGeometry relative="1" as="geometry" />
        </mxCell>
        <mxCell id="kNGBd98Y1CKDyoNw-E7V-47" value="getQuestionsFromDynamo" style="sketch=0;points=[[0,0,0],[0.25,0,0],[0.5,0,0],[0.75,0,0],[1,0,0],[0,1,0],[0.25,1,0],[0.5,1,0],[0.75,1,0],[1,1,0],[0,0.25,0],[0,0.5,0],[0,0.75,0],[1,0.25,0],[1,0.5,0],[1,0.75,0]];outlineConnect=0;fontColor=#232F3E;gradientColor=#F78E04;gradientDirection=north;fillColor=#D05C17;strokeColor=#ffffff;dashed=0;verticalLabelPosition=bottom;verticalAlign=top;align=center;html=1;fontSize=12;fontStyle=0;aspect=fixed;shape=mxgraph.aws4.resourceIcon;resIcon=mxgraph.aws4.lambda;" vertex="1" parent="kNGBd98Y1CKDyoNw-E7V-15">
          <mxGeometry x="630" y="740" width="78" height="78" as="geometry" />
        </mxCell>
        <mxCell id="kNGBd98Y1CKDyoNw-E7V-48" style="edgeStyle=orthogonalEdgeStyle;rounded=0;orthogonalLoop=1;jettySize=auto;html=1;" edge="1" parent="kNGBd98Y1CKDyoNw-E7V-15" source="kNGBd98Y1CKDyoNw-E7V-49" target="kNGBd98Y1CKDyoNw-E7V-54">
          <mxGeometry relative="1" as="geometry" />
        </mxCell>
        <mxCell id="kNGBd98Y1CKDyoNw-E7V-49" value="increaseGamesPlayed" style="sketch=0;points=[[0,0,0],[0.25,0,0],[0.5,0,0],[0.75,0,0],[1,0,0],[0,1,0],[0.25,1,0],[0.5,1,0],[0.75,1,0],[1,1,0],[0,0.25,0],[0,0.5,0],[0,0.75,0],[1,0.25,0],[1,0.5,0],[1,0.75,0]];outlineConnect=0;fontColor=#232F3E;gradientColor=#F78E04;gradientDirection=north;fillColor=#D05C17;strokeColor=#ffffff;dashed=0;verticalLabelPosition=bottom;verticalAlign=top;align=center;html=1;fontSize=12;fontStyle=0;aspect=fixed;shape=mxgraph.aws4.resourceIcon;resIcon=mxgraph.aws4.lambda;" vertex="1" parent="kNGBd98Y1CKDyoNw-E7V-15">
          <mxGeometry x="620" y="860" width="78" height="78" as="geometry" />
        </mxCell>
        <mxCell id="kNGBd98Y1CKDyoNw-E7V-50" style="edgeStyle=orthogonalEdgeStyle;rounded=0;orthogonalLoop=1;jettySize=auto;html=1;" edge="1" parent="kNGBd98Y1CKDyoNw-E7V-15" source="kNGBd98Y1CKDyoNw-E7V-51" target="kNGBd98Y1CKDyoNw-E7V-54">
          <mxGeometry relative="1" as="geometry" />
        </mxCell>
        <mxCell id="kNGBd98Y1CKDyoNw-E7V-51" value="storeUserToDynamoDB" style="sketch=0;points=[[0,0,0],[0.25,0,0],[0.5,0,0],[0.75,0,0],[1,0,0],[0,1,0],[0.25,1,0],[0.5,1,0],[0.75,1,0],[1,1,0],[0,0.25,0],[0,0.5,0],[0,0.75,0],[1,0.25,0],[1,0.5,0],[1,0.75,0]];outlineConnect=0;fontColor=#232F3E;gradientColor=#F78E04;gradientDirection=north;fillColor=#D05C17;strokeColor=#ffffff;dashed=0;verticalLabelPosition=bottom;verticalAlign=top;align=center;html=1;fontSize=12;fontStyle=0;aspect=fixed;shape=mxgraph.aws4.resourceIcon;resIcon=mxgraph.aws4.lambda;" vertex="1" parent="kNGBd98Y1CKDyoNw-E7V-15">
          <mxGeometry x="620" y="1006.5" width="78" height="78" as="geometry" />
        </mxCell>
        <mxCell id="kNGBd98Y1CKDyoNw-E7V-52" style="edgeStyle=orthogonalEdgeStyle;rounded=0;orthogonalLoop=1;jettySize=auto;html=1;" edge="1" parent="kNGBd98Y1CKDyoNw-E7V-15" source="kNGBd98Y1CKDyoNw-E7V-53" target="kNGBd98Y1CKDyoNw-E7V-54">
          <mxGeometry relative="1" as="geometry" />
        </mxCell>
        <mxCell id="kNGBd98Y1CKDyoNw-E7V-53" value="UpdateUserDetails" style="sketch=0;points=[[0,0,0],[0.25,0,0],[0.5,0,0],[0.75,0,0],[1,0,0],[0,1,0],[0.25,1,0],[0.5,1,0],[0.75,1,0],[1,1,0],[0,0.25,0],[0,0.5,0],[0,0.75,0],[1,0.25,0],[1,0.5,0],[1,0.75,0]];outlineConnect=0;fontColor=#232F3E;gradientColor=#F78E04;gradientDirection=north;fillColor=#D05C17;strokeColor=#ffffff;dashed=0;verticalLabelPosition=bottom;verticalAlign=top;align=center;html=1;fontSize=12;fontStyle=0;aspect=fixed;shape=mxgraph.aws4.resourceIcon;resIcon=mxgraph.aws4.lambda;" vertex="1" parent="kNGBd98Y1CKDyoNw-E7V-15">
          <mxGeometry x="620" y="1160" width="78" height="78" as="geometry" />
        </mxCell>
        <mxCell id="kNGBd98Y1CKDyoNw-E7V-54" value="Amazon DynamoDB&lt;br&gt;&lt;span style=&quot;font-weight: normal;&quot;&gt;Users&lt;/span&gt;" style="sketch=0;outlineConnect=0;fontColor=#232F3E;gradientColor=none;strokeColor=#ffffff;fillColor=#232F3E;dashed=0;verticalLabelPosition=middle;verticalAlign=bottom;align=center;html=1;whiteSpace=wrap;fontSize=10;fontStyle=1;spacing=3;shape=mxgraph.aws4.productIcon;prIcon=mxgraph.aws4.dynamodb;" vertex="1" parent="kNGBd98Y1CKDyoNw-E7V-15">
          <mxGeometry x="1070" y="251.5" width="80" height="128.5" as="geometry" />
        </mxCell>
        <mxCell id="kNGBd98Y1CKDyoNw-E7V-55" value="Amazon DynamoDB&lt;br&gt;&lt;span style=&quot;font-weight: normal;&quot;&gt;sdpQuestions&lt;/span&gt;" style="sketch=0;outlineConnect=0;fontColor=#232F3E;gradientColor=none;strokeColor=#ffffff;fillColor=#232F3E;dashed=0;verticalLabelPosition=middle;verticalAlign=bottom;align=center;html=1;whiteSpace=wrap;fontSize=10;fontStyle=1;spacing=3;shape=mxgraph.aws4.productIcon;prIcon=mxgraph.aws4.dynamodb;" vertex="1" parent="kNGBd98Y1CKDyoNw-E7V-15">
          <mxGeometry x="970" y="719" width="80" height="120" as="geometry" />
        </mxCell>
        <mxCell id="kNGBd98Y1CKDyoNw-E7V-56" style="edgeStyle=orthogonalEdgeStyle;rounded=0;orthogonalLoop=1;jettySize=auto;html=1;" edge="1" parent="1" source="kNGBd98Y1CKDyoNw-E7V-58" target="kNGBd98Y1CKDyoNw-E7V-49">
          <mxGeometry relative="1" as="geometry" />
        </mxCell>
        <mxCell id="kNGBd98Y1CKDyoNw-E7V-57" value="POST" style="edgeLabel;html=1;align=center;verticalAlign=middle;resizable=0;points=[];" vertex="1" connectable="0" parent="kNGBd98Y1CKDyoNw-E7V-56">
          <mxGeometry x="-0.2453" y="1" relative="1" as="geometry">
            <mxPoint as="offset" />
          </mxGeometry>
        </mxCell>
        <mxCell id="kNGBd98Y1CKDyoNw-E7V-58" value="increaseGamesPlayed" style="outlineConnect=0;dashed=0;verticalLabelPosition=bottom;verticalAlign=top;align=center;html=1;shape=mxgraph.aws3.api_gateway;fillColor=#D9A741;gradientColor=none;" vertex="1" parent="1">
          <mxGeometry x="880" y="2000" width="76.5" height="93" as="geometry" />
        </mxCell>
        <mxCell id="kNGBd98Y1CKDyoNw-E7V-59" style="edgeStyle=orthogonalEdgeStyle;rounded=0;orthogonalLoop=1;jettySize=auto;html=1;" edge="1" parent="1" source="kNGBd98Y1CKDyoNw-E7V-61" target="kNGBd98Y1CKDyoNw-E7V-53">
          <mxGeometry relative="1" as="geometry" />
        </mxCell>
        <mxCell id="kNGBd98Y1CKDyoNw-E7V-60" value="PATCH" style="edgeLabel;html=1;align=center;verticalAlign=middle;resizable=0;points=[];" vertex="1" connectable="0" parent="kNGBd98Y1CKDyoNw-E7V-59">
          <mxGeometry x="-0.2681" y="-4" relative="1" as="geometry">
            <mxPoint as="offset" />
          </mxGeometry>
        </mxCell>
        <mxCell id="kNGBd98Y1CKDyoNw-E7V-61" value="UpdateUserDetails" style="outlineConnect=0;dashed=0;verticalLabelPosition=bottom;verticalAlign=top;align=center;html=1;shape=mxgraph.aws3.api_gateway;fillColor=#D9A741;gradientColor=none;" vertex="1" parent="1">
          <mxGeometry x="880" y="2280" width="76.5" height="93" as="geometry" />
        </mxCell>
        <mxCell id="kNGBd98Y1CKDyoNw-E7V-62" value="&lt;font style=&quot;font-size: 16px;&quot;&gt;&lt;b&gt;Google Cloud&amp;nbsp;&lt;/b&gt;&lt;/font&gt;" style="fillColor=none;strokeColor=#5A6C86;dashed=1;verticalAlign=top;fontStyle=0;fontColor=#5A6C86;whiteSpace=wrap;html=1;" vertex="1" parent="1">
          <mxGeometry x="100" y="1180" width="300" height="550" as="geometry" />
        </mxCell>
        <mxCell id="kNGBd98Y1CKDyoNw-E7V-63" value="&#xa;    &#xa;     Auth" style="strokeColor=#dddddd;shadow=1;strokeWidth=1;rounded=1;absoluteArcSize=1;arcSize=2;" vertex="1" parent="1">
          <mxGeometry x="190" y="1300" width="100" height="60" as="geometry" />
        </mxCell>
        <mxCell id="kNGBd98Y1CKDyoNw-E7V-64" value="Firebase" style="sketch=0;dashed=0;connectable=0;html=1;fillColor=#5184F3;strokeColor=none;shape=mxgraph.gcp2.firebase;part=1;labelPosition=right;verticalLabelPosition=middle;align=left;verticalAlign=middle;spacingLeft=5;fontColor=#999999;fontSize=12;" vertex="1" parent="kNGBd98Y1CKDyoNw-E7V-63">
          <mxGeometry width="32.4" height="45" relative="1" as="geometry">
            <mxPoint x="5" y="7" as="offset" />
          </mxGeometry>
        </mxCell>
        <mxCell id="kNGBd98Y1CKDyoNw-E7V-65" value="Firebase Bucket" style="sketch=0;outlineConnect=0;fontColor=#232F3E;gradientColor=none;fillColor=#3F8624;strokeColor=none;dashed=0;verticalLabelPosition=bottom;verticalAlign=top;align=center;html=1;fontSize=12;fontStyle=0;aspect=fixed;pointerEvents=1;shape=mxgraph.aws4.bucket;" vertex="1" parent="1">
          <mxGeometry x="215" y="1475" width="75" height="78" as="geometry" />
        </mxCell>
      </root>
    </mxGraphModel>
  </diagram>
</mxfile>
